<?xml version="1.0" ?><!DOCTYPE svg  PUBLIC '-//W3C//DTD SVG 1.1//EN'  'http://www.w3.org/Graphics/SVG/1.1/DTD/svg11.dtd'><svg enable-background="new 0 0 65 65" height="65px" id="Layer_1" version="1.1" viewBox="0 0 65 65" width="65px" xml:space="preserve" xmlns="http://www.w3.org/2000/svg" xmlns:xlink="http://www.w3.org/1999/xlink"><path d="M36.108,26.297c0.528,0.31,1.023,0.681,1.468,1.125c0.449,0.45,0.818,0.948,1.125,1.473l2.605-5.202L36.108,26.297z"/><path d="M32.5,0.208C14.694,0.208,0.208,14.694,0.208,32.5S14.694,64.792,32.5,64.792S64.792,50.306,64.792,32.5  S50.306,0.208,32.5,0.208z M34,3.246C48.96,4.004,60.996,16.04,61.754,31h-3.893C57.111,18.182,46.817,7.889,34,7.139V3.246z   M31,3.246v3.893C18.182,7.89,7.889,18.182,7.138,31H3.246C4.004,16.04,16.04,4.004,31,3.246z M31.001,61.754  C16.04,60.996,4.004,48.961,3.246,34h3.892c0.75,12.818,11.044,23.111,23.863,23.861V61.754z M21.003,46.01  c-0.057,0.028-0.117,0.043-0.176,0.063c-0.041,0.015-0.079,0.033-0.121,0.044c-0.124,0.032-0.25,0.052-0.375,0.052c0,0,0,0-0.001,0  s0,0-0.001,0c-0.125,0-0.25-0.02-0.375-0.052c-0.042-0.011-0.08-0.029-0.121-0.044c-0.059-0.021-0.119-0.035-0.176-0.063  c-0.022-0.011-0.04-0.026-0.061-0.038c-0.033-0.019-0.064-0.04-0.096-0.061c-0.081-0.054-0.155-0.114-0.223-0.182  c-0.02-0.02-0.042-0.037-0.061-0.059c-0.085-0.094-0.156-0.197-0.214-0.308c-0.004-0.009-0.011-0.015-0.015-0.022  c-0.015-0.029-0.021-0.06-0.034-0.089c-0.021-0.051-0.042-0.102-0.058-0.154c-0.014-0.046-0.022-0.092-0.032-0.138  c-0.01-0.049-0.02-0.097-0.024-0.146c-0.005-0.049-0.005-0.097-0.005-0.146s0-0.097,0.005-0.146  c0.004-0.049,0.014-0.096,0.023-0.145c0.009-0.047,0.019-0.093,0.032-0.14c0.016-0.052,0.036-0.101,0.057-0.15  c0.013-0.03,0.02-0.062,0.035-0.092l6.357-12.694c0.244-1.422,0.908-2.785,2.003-3.88c1.049-1.048,2.363-1.73,3.791-1.993  l12.855-6.439c0.033-0.016,0.067-0.024,0.101-0.038c0.046-0.019,0.092-0.039,0.14-0.053c0.048-0.015,0.096-0.024,0.145-0.033  c0.047-0.009,0.094-0.019,0.142-0.023c0.049-0.004,0.097-0.005,0.146-0.005s0.097,0,0.146,0.005  c0.049,0.005,0.096,0.014,0.144,0.023s0.095,0.019,0.142,0.033c0.05,0.015,0.098,0.035,0.146,0.055  c0.031,0.014,0.064,0.021,0.096,0.037c0.012,0.006,0.021,0.014,0.032,0.021c0.047,0.025,0.09,0.055,0.134,0.085  c0.038,0.026,0.077,0.049,0.112,0.078c0.037,0.031,0.07,0.066,0.104,0.101c0.036,0.035,0.072,0.069,0.104,0.108  c0.027,0.033,0.05,0.07,0.074,0.105c0.031,0.046,0.063,0.093,0.09,0.143c0.006,0.01,0.014,0.019,0.019,0.029  c0.015,0.029,0.021,0.06,0.034,0.09c0.021,0.05,0.043,0.1,0.059,0.152c0.014,0.046,0.022,0.093,0.031,0.14  c0.01,0.048,0.02,0.096,0.024,0.145s0.005,0.097,0.005,0.146s0,0.097-0.005,0.146s-0.015,0.097-0.024,0.145  c-0.009,0.047-0.018,0.093-0.031,0.14c-0.016,0.052-0.037,0.102-0.059,0.152c-0.013,0.03-0.02,0.061-0.034,0.09l-6.444,12.865  c-0.258,1.386-0.919,2.71-1.988,3.779c-1.072,1.072-2.424,1.76-3.89,2.009L21.003,46.01z M34.001,61.754v-3.893  C46.818,57.11,57.111,46.818,57.861,34h3.893C60.996,48.96,48.961,60.995,34.001,61.754z"/><path d="M28.788,38.756c-0.517-0.306-1.001-0.672-1.437-1.107c-0.44-0.439-0.803-0.927-1.105-1.438l-2.554,5.099L28.788,38.756z"/><path d="M28.275,32.123c-0.119,1.217,0.268,2.475,1.197,3.405c0.799,0.799,1.861,1.239,2.991,1.239c0.14,0,0.274-0.027,0.412-0.04  c0.196-0.074,0.398-0.104,0.597-0.095c0.742-0.182,1.428-0.55,1.982-1.104c1.648-1.649,1.648-4.333-0.001-5.984  c-0.798-0.798-1.86-1.238-2.991-1.238c-1.13,0-2.192,0.439-2.991,1.238c-0.568,0.568-0.926,1.263-1.103,1.993  C28.377,31.732,28.347,31.93,28.275,32.123z"/></svg>