<?xml version="1.0" ?><svg id="Capa_1" style="enable-background:new 0 0 512 512;" version="1.1" viewBox="0 0 512 512" xml:space="preserve" xmlns="http://www.w3.org/2000/svg" xmlns:xlink="http://www.w3.org/1999/xlink"><style type="text/css">
	.st0{fill:#231F20;}
</style><g><path class="st0" d="M252.3,108.6c1.9,1.9,4.4,2.8,6.9,2.8c2.5,0,5-0.9,6.9-2.8c3.8-3.8,3.8-10,0-13.7l-46-46   c-3.8-3.8-10-3.8-13.7,0c-3.8,3.8-3.8,10,0,13.7L252.3,108.6z"/><path class="st0" d="M336.6,85.4c5.4,0,9.7-4.4,9.7-9.7v-65c0-5.4-4.4-9.7-9.7-9.7c-5.4,0-9.7,4.4-9.7,9.7v65   C326.8,81.1,331.2,85.4,336.6,85.4z"/><path class="st0" d="M413.9,111.5c2.5,0,5-0.9,6.9-2.8l46-46c3.8-3.8,3.8-10,0-13.7c-3.8-3.8-10-3.8-13.7,0l-46,46   c-3.8,3.8-3.8,10,0,13.7C409,110.5,411.5,111.5,413.9,111.5z"/><path class="st0" d="M427.5,179c0,5.4,4.4,9.7,9.7,9.7h65c5.4,0,9.7-4.4,9.7-9.7s-4.4-9.7-9.7-9.7h-65   C431.9,169.3,427.5,173.7,427.5,179z"/><path class="st0" d="M450.9,219.7c-6.7-15.1-19.8-26.7-35.7-31.3c0.4-3,0.5-6.1,0.5-9.2c0-43.7-35.5-79.2-79.1-79.2   c-34.8,0-64.5,22.6-75,53.9c-3.1,1.1-6.2,2.4-9.2,3.8c-20.1-36.1-58.8-60.7-103-60.7C84.6,97,31.7,149.8,31.7,214.7   c0,4.9,0.3,9.9,0.9,14.6C13.1,241.6,0,263.3,0,288c0,18.3,7.1,34.9,18.7,47.3c12.6,13.6,30.6,22,50.6,22h78c6.1,0,11-4.9,11-11   s-4.9-11-11-11h-78C43.2,335.3,22,314.1,22,288c0-14.1,6.2-26.6,16-35.3c5.5-5,12.3-8.6,19.8-10.4c-2.2-7-3.5-14.2-3.9-21.7   c-0.2-2-0.2-4-0.2-5.9c0-52.7,42.9-95.8,95.7-95.8c36.5,0,68.4,20.6,84.4,50.9c1.2,1.9,2.1,4,3,6.1c1.9,4.5,6.2,7.6,11.5,7.6   c2.4,0,4.7-0.7,6.6-1.9c0.2-0.2,0.4-0.3,0.6-0.5c0.6-0.4,1.2-0.8,1.8-1.1c1.3-0.8,2.6-1.5,3.9-2.2c5-2.5,10.3-4.5,15.9-5.6   c4.6-1,9.4-1.5,14.3-1.5c27.3,0,50.9,16.2,61.6,39.5c0.1,0,0.1,0,0.1,0.1c2.5,5.1,7.5,8.5,13.2,8.5c7.6,0,12-3.6,12-3.6   c2.7-2.1,5.8-3.8,9-4.9c3.8-1.5,7.9-2.2,12-2.2c3.5,0,6.9,0.5,10,1.5c5.7,1.7,10.9,5,14.9,9.2l4.2,5.6c3,4.8,4.9,10.4,5.2,16.4h7.2   c5.2,0,10.2,0.8,14.8,2.4c18.8,6.2,32.4,23.9,32.4,44.7c0,26.1-21.2,47.3-47.2,47.3h-79.1c-6.1,0-11,4.9-11,11s4.9,11,11,11h79.1   c19.9,0,38-8.5,50.5-22c11.6-12.4,18.7-29,18.7-47.3C510.2,253.3,484.4,224.4,450.9,219.7z M395.8,186.2   c-9.5,0.6-18.3,3.5-25.9,8.2c-15.4-27.3-44.7-45.7-78.3-45.7c-2.2,0-4.4,0.1-6.5,0.3c10.3-17.7,29.6-29.6,51.5-29.6   c32.9,0,59.7,26.8,59.7,59.8C396.3,181.5,396.1,183.9,395.8,186.2z"/><path class="st0" d="M143.9,382.5c-8,0-14.4,6.5-14.4,14.4c0,8,6.5,14.4,14.4,14.4c8,0,14.4-6.5,14.4-14.4   C158.3,389,151.9,382.5,143.9,382.5z"/><path class="st0" d="M180,443.6c-8,0-14.4,6.5-14.4,14.4c0,8,6.5,14.4,14.4,14.4c8,0,14.4-6.5,14.4-14.4   C194.4,450.1,188,443.6,180,443.6z"/><path class="st0" d="M256,482.2c-8,0-14.4,6.5-14.4,14.4c0,8,6.5,14.4,14.4,14.4c8,0,14.4-6.5,14.4-14.4   C270.4,488.7,264,482.2,256,482.2z"/><path class="st0" d="M373.6,384.5c-6.9-4-15.7-1.6-19.7,5.3c-4,6.9-1.6,15.7,5.3,19.7c6.9,4,15.7,1.6,19.7-5.3   C382.9,397.3,380.5,388.5,373.6,384.5z"/><path class="st0" d="M248.8,409.5c6.9,4,15.7,1.6,19.7-5.3c4-6.9,1.6-15.7-5.3-19.7c-6.9-4-15.7-1.6-19.7,5.3   C239.5,396.7,241.9,405.5,248.8,409.5z"/><path class="st0" d="M330.3,443.6c-8,0-14.4,6.5-14.4,14.4c0,8,6.5,14.4,14.4,14.4c8,0,14.4-6.5,14.4-14.4   C344.7,450.1,338.2,443.6,330.3,443.6z"/><path class="st0" d="M256,432.4c-8,0-14.4,6.5-14.4,14.4c0,8,6.5,14.4,14.4,14.4c8,0,14.4-6.5,14.4-14.4   C270.4,438.8,264,432.4,256,432.4z"/></g></svg>